<?xml version="1.0" encoding="utf-8"?>
<!-- Generator: Adobe Illustrator 16.0.0, SVG Export Plug-In . SVG Version: 6.00 Build 0)  -->
<!DOCTYPE svg PUBLIC "-//W3C//DTD SVG 1.1//EN" "http://www.w3.org/Graphics/SVG/1.1/DTD/svg11.dtd">
<svg version="1.1" id="Layer_1" xmlns="http://www.w3.org/2000/svg" xmlns:xlink="http://www.w3.org/1999/xlink" x="0px" y="0px"
	 width="21.651px" height="21.65px" viewBox="0.657 1.936 21.651 21.65" enable-background="new 0.657 1.936 21.651 21.65"
	 xml:space="preserve">
<path fill="#262626" d="M11.483,1.936c-5.979,0-10.826,4.848-10.826,10.825c0,5.979,4.848,10.825,10.826,10.825
	c5.978,0,10.825-4.846,10.825-10.825C22.309,6.783,17.461,1.936,11.483,1.936z M12.386,16.42v-2.757h2.7
	c-0.052,1.031-0.19,2.021-0.411,2.958C13.933,16.513,13.165,16.451,12.386,16.42z M14.15,18.371c-0.449,1.2-1.046,2.253-1.765,3.117
	v-3.266C12.986,18.248,13.575,18.297,14.15,18.371z M12.386,11.858v-2.72c0.782-0.03,1.552-0.093,2.298-0.201
	c0.216,0.926,0.352,1.904,0.402,2.921H12.386z M12.386,7.336V4.033c0.727,0.874,1.326,1.939,1.777,3.153
	C13.584,7.263,12.99,7.311,12.386,7.336z M14.824,4.388c1.114,0.447,2.122,1.108,2.968,1.937c-0.579,0.212-1.184,0.398-1.821,0.549
	C15.66,5.977,15.271,5.149,14.824,4.388z M8.291,16.621c-0.22-0.938-0.358-1.927-0.411-2.958h2.701v2.757
	C9.8,16.451,9.035,16.513,8.291,16.621z M10.581,18.223v3.266c-0.72-0.864-1.315-1.917-1.765-3.117
	C9.392,18.297,9.98,18.248,10.581,18.223z M7.88,11.858c0.051-1.017,0.187-1.995,0.402-2.921c0.747,0.108,1.516,0.171,2.299,0.201
	v2.72H7.88z M8.804,7.187c0.451-1.214,1.052-2.279,1.777-3.153v3.303C9.976,7.311,9.382,7.263,8.804,7.187z M6.995,6.871
	c-0.64-0.148-1.242-0.337-1.82-0.547C6.02,5.495,7.027,4.835,8.143,4.387C7.694,5.149,7.306,5.977,6.995,6.871z M6.5,8.602
	C6.262,9.64,6.108,10.73,6.057,11.858H2.508c0.149-1.495,0.667-2.884,1.459-4.075C4.761,8.108,5.605,8.387,6.5,8.602z M6.508,16.956
	c-0.891,0.213-1.732,0.49-2.523,0.813c-0.803-1.198-1.326-2.598-1.477-4.105h3.549C6.109,14.805,6.266,15.908,6.508,16.956z
	 M7.007,18.687c0.309,0.88,0.693,1.696,1.134,2.446c-1.103-0.442-2.099-1.094-2.938-1.908C5.776,19.018,6.375,18.832,7.007,18.687z
	 M15.959,18.687c0.632,0.146,1.229,0.331,1.804,0.538c-0.84,0.814-1.835,1.466-2.938,1.909
	C15.267,20.383,15.65,19.566,15.959,18.687z M16.459,16.956c0.243-1.048,0.397-2.151,0.451-3.293h3.55
	c-0.151,1.508-0.675,2.907-1.478,4.105C18.191,17.446,17.349,17.169,16.459,16.956z M16.91,11.858
	c-0.052-1.128-0.206-2.219-0.444-3.257c0.896-0.215,1.741-0.493,2.535-0.818c0.791,1.191,1.309,2.58,1.458,4.075H16.91z"/>
</svg>
