<?xml version="1.0" encoding="utf-8"?>
<!-- Generator: Adobe Illustrator 16.0.0, SVG Export Plug-In . SVG Version: 6.00 Build 0)  -->
<!DOCTYPE svg PUBLIC "-//W3C//DTD SVG 1.1//EN" "http://www.w3.org/Graphics/SVG/1.1/DTD/svg11.dtd">
<svg version="1.1" id="Layer_1" xmlns="http://www.w3.org/2000/svg" xmlns:xlink="http://www.w3.org/1999/xlink" x="0px" y="0px"
	 width="30px" height="36px" viewBox="-2.872 -5.065 30 36" enable-background="new -2.872 -5.065 30 36" xml:space="preserve">
<path fill="#262626" d="M15.129,23.435h-6c-0.414,0-0.75,0.337-0.75,0.75s0.336,0.75,0.75,0.75h6c0.412,0,0.75-0.337,0.75-0.75
	S15.541,23.435,15.129,23.435z M15.129,26.435h-6c-0.414,0-0.75,0.337-0.75,0.75s0.336,0.75,0.75,0.75h6
	c0.412,0,0.75-0.337,0.75-0.75S15.541,26.435,15.129,26.435z M15.504,29.435h-6.75l1.781,1.173c0.23,0.207,0.57,0.327,0.922,0.327
	h1.344c0.35,0,0.691-0.12,0.922-0.327L15.504,29.435z M21.129,8.736c0,5.353-4.822,8.974-4.822,13.198H7.949
	c0-4.225-4.82-7.846-4.82-13.198c0-5.585,4.496-8.659,8.994-8.659C16.625,0.078,21.129,3.154,21.129,8.736z M27.129,7.699v2.058
	H23.32c0.031-0.334,0.059-0.671,0.059-1.021c0-0.356-0.027-0.696-0.053-1.036h3.803V7.699z M11.156-2.13v-2.936h2.057v2.946
	c-0.363-0.033-0.727-0.053-1.09-0.053C11.8-2.172,11.478-2.157,11.156-2.13z M5.542-0.189L3.98-3.099l1.814-0.972l1.555,2.899
	C6.722-0.9,6.117-0.57,5.542-0.189z M21.422,2.413l2.912-2.091l1.197,1.673l-3.08,2.21C22.166,3.56,21.816,2.964,21.422,2.413z
	 M16.906-1.17l1.557-2.901l1.813,0.972l-1.561,2.911C18.141-0.568,17.533-0.896,16.906-1.17z M1.804,4.205l-3.082-2.208l1.197-1.673
	l2.916,2.089C2.437,2.963,2.091,3.558,1.804,4.205z M22.365,13.538l3.529,1.433l-0.77,1.906l-3.639-1.473
	C21.803,14.809,22.098,14.186,22.365,13.538z M2.701,15.272l-3.533,1.589l-0.844-1.876l3.512-1.579
	C2.093,14.057,2.39,14.675,2.701,15.272z M0.935,9.757h-3.807V7.699h3.803C0.904,8.038,0.878,8.38,0.878,8.736
	C0.878,9.086,0.904,9.423,0.935,9.757z"/>
</svg>
