<?xml version="1.0" encoding="utf-8"?>
<!-- Generator: Adobe Illustrator 16.0.0, SVG Export Plug-In . SVG Version: 6.00 Build 0)  -->
<!DOCTYPE svg PUBLIC "-//W3C//DTD SVG 1.1//EN" "http://www.w3.org/Graphics/SVG/1.1/DTD/svg11.dtd">
<svg version="1.1" id="Layer_1" xmlns="http://www.w3.org/2000/svg" xmlns:xlink="http://www.w3.org/1999/xlink" x="0px" y="0px"
	 width="15px" height="14.998px" viewBox="4.841 5.113 15 14.998" enable-background="new 4.841 5.113 15 14.998"
	 xml:space="preserve">
<path fill="#E1E0DE" d="M12.342,5.113c-4.142,0-7.501,3.354-7.501,7.499c0,4.141,3.359,7.499,7.501,7.499
	c4.142,0,7.5-3.358,7.5-7.499C19.842,8.468,16.484,5.113,12.342,5.113z M12.342,14.977c0.736,0,1.445-0.333,1.96-1.046l1.16,0.76
	c-0.795,1.136-1.945,1.67-3.121,1.67c-2.069,0-3.749-1.678-3.749-3.748c0-2.066,1.68-3.752,3.749-3.752
	c1.164,0,2.322,0.528,3.121,1.67l-1.16,0.761c-0.521-0.719-1.229-1.043-1.96-1.043c-1.302,0-2.364,1.06-2.364,2.364
	C9.978,13.915,11.041,14.977,12.342,14.977z"/>
</svg>
