<?xml version="1.0" encoding="utf-8"?>
<!-- Generator: Adobe Illustrator 16.0.0, SVG Export Plug-In . SVG Version: 6.00 Build 0)  -->
<!DOCTYPE svg PUBLIC "-//W3C//DTD SVG 1.1//EN" "http://www.w3.org/Graphics/SVG/1.1/DTD/svg11.dtd">
<svg version="1.1" id="Layer_1" xmlns="http://www.w3.org/2000/svg" xmlns:xlink="http://www.w3.org/1999/xlink" x="0px" y="0px"
	 width="21.65px" height="21.65px" viewBox="0.541 1.758 21.65 21.65" enable-background="new 0.541 1.758 21.65 21.65"
	 xml:space="preserve">
<path fill="#262626" d="M11.365,1.758c-5.977,0-10.824,4.848-10.824,10.825s4.848,10.825,10.824,10.825
	c5.979,0,10.826-4.848,10.826-10.825S17.344,1.758,11.365,1.758z M13.367,18.552c-0.32,0.063-0.422-0.135-0.422-0.304v-1.732
	c0-0.59-0.207-0.973-0.434-1.17c1.406-0.155,2.885-0.689,2.885-3.115c0-0.69-0.248-1.254-0.65-1.696
	c0.064-0.159,0.281-0.802-0.063-1.671c0,0-0.529-0.169-1.736,0.646c-0.504-0.139-1.045-0.208-1.582-0.211
	c-0.537,0.003-1.076,0.072-1.582,0.212C8.578,8.694,8.049,8.864,8.049,8.864c-0.344,0.87-0.129,1.512-0.061,1.67
	c-0.404,0.442-0.652,1.006-0.652,1.696c0,2.42,1.475,2.96,2.877,3.12c-0.182,0.158-0.344,0.436-0.4,0.844
	c-0.361,0.163-1.273,0.441-1.838-0.524c0,0-0.334-0.607-0.967-0.651c0,0-0.617-0.007-0.045,0.386c0,0,0.416,0.193,0.701,0.923
	c0,0,0.365,1.128,2.123,0.745v1.176c0,0.166-0.102,0.361-0.416,0.304c-2.51-0.834-4.32-3.203-4.32-5.991
	c0-3.488,2.828-6.314,6.314-6.314c3.488,0,6.316,2.826,6.316,6.314C17.682,15.349,15.873,17.715,13.367,18.552z"/>
</svg>
