<?xml version="1.0" encoding="utf-8"?>
<!-- Generator: Adobe Illustrator 16.0.0, SVG Export Plug-In . SVG Version: 6.00 Build 0)  -->
<!DOCTYPE svg PUBLIC "-//W3C//DTD SVG 1.1//EN" "http://www.w3.org/Graphics/SVG/1.1/DTD/svg11.dtd">
<svg version="1.1" id="Layer_1" xmlns="http://www.w3.org/2000/svg" xmlns:xlink="http://www.w3.org/1999/xlink" x="0px" y="0px"
	 width="28px" height="33.6px" viewBox="-1.743 -4.825 28 33.6" enable-background="new -1.743 -4.825 28 33.6"
	 xml:space="preserve">
<path fill="#262626" d="M26.257,13.375v-18.2h-28v33.6H10.03c6.798,0,4.668-11.2,4.668-11.2
	C18.909,18.617,26.257,18.162,26.257,13.375z M20.656,3.575h-16.8v-1.4h16.8V3.575z M20.656,7.774h-16.8v-1.4h16.8V7.774z
	 M20.656,11.975h-16.8v-1.4h16.8V11.975z M17.729,20.687c2.865,0.67,6.727-0.392,8.527-1.649c-2.092,2.796-7.323,7.99-10.404,9.632
	C17.471,27.033,18.04,22.742,17.729,20.687z"/>
</svg>
