<?xml version="1.0" encoding="utf-8"?>
<!-- Generator: Adobe Illustrator 16.0.0, SVG Export Plug-In . SVG Version: 6.00 Build 0)  -->
<!DOCTYPE svg PUBLIC "-//W3C//DTD SVG 1.1//EN" "http://www.w3.org/Graphics/SVG/1.1/DTD/svg11.dtd">
<svg version="1.1" id="Layer_1" xmlns="http://www.w3.org/2000/svg" xmlns:xlink="http://www.w3.org/1999/xlink" x="0px" y="0px"
	 width="54.25px" height="70.314px" viewBox="-14.866 -22.151 54.25 70.314" enable-background="new -14.866 -22.151 54.25 70.314"
	 xml:space="preserve">
<g>
	<g transform="translate(0.000000,511.000000) scale(0.100000,-0.100000)">
		<path fill="#E1E0DE" d="M-148.657,4979.941v-351.572h210.21h210.029l58.965,58.965c40.459,40.645,59.688,61.152,61.338,65.547
			c1.826,5.137,2.197,62.813,1.826,292.607l-0.547,286.025h-270.82h-271.001V4979.941z M364.043,5042.197v-260.02h-61.348h-61.328
			v-62.256v-62.256H61.001h-180.366v322.275v322.275h241.704h241.704V5042.197L364.043,5042.197z M351.23,4751.602
			c0-1.826-79.277-81.123-80.928-81.123c-1.826,0-2.021,79.473-0.186,81.123C271.758,4753.438,351.23,4753.252,351.23,4751.602z"/>
		<path fill="#E1E0DE" d="M55.503,5240.146c-17.764-4.58-31.865-17.949-36.987-34.795c-3.477-11.719-3.843-34.063-0.732-45.234
			c2.563-9.883,10.62-21.426,18.501-27.285c19.404-14.287,50.718-12.451,66.289,4.033c5.674,5.859,12.813,21.055,10.981,22.891
			c-0.728,0.547-5.674,2.383-10.806,3.848l-9.707,2.92l-3.481-8.057c-9.155-20.693-36.616-20.693-46.87,0
			c-5.132,10.625-5.132,37.354,0.186,47.422c5.674,11.172,11.904,14.834,24.907,14.834c10.249,0,11.348-0.361,16.841-6.592
			c3.296-3.652,6.411-7.5,6.963-8.975c1.099-3.662,21.602,1.465,21.602,5.498c0,6.768-10.806,19.961-20.137,24.717
			C82.974,5240.508,65.21,5242.705,55.503,5240.146z"/>
		<path fill="#E1E0DE" d="M124.175,5237.764c0.186-1.289,8.97-27.109,19.771-57.324l19.785-54.922h12.627h12.451l19.785,54.922
			c10.801,30.215,19.766,56.035,19.961,57.324c0,1.455-3.486,2.188-11.543,2.188h-11.348l-13.555-40.654
			c-7.324-22.52-13.906-41.377-14.648-42.119c-0.742-0.723-4.395,8.242-8.242,20.146c-3.848,11.709-10.254,30.771-14.287,42.119
			l-7.324,20.518h-11.709C127.656,5239.961,124.175,5239.219,124.175,5237.764z"/>
		<path fill="#E1E0DE" d="M-38.794,5025.713v-14.639h161.133h161.138v14.639v14.648H122.344H-38.794V5025.713z"/>
		<path fill="#E1E0DE" d="M-38.794,4932.334v-14.648h161.133h161.138v14.648v14.648H122.344H-38.794V4932.334z"/>
		<path fill="#E1E0DE" d="M-38.794,4840.771v-14.648h161.133h161.138v14.648v14.658H122.344H-38.794V4840.771z"/>
	</g>
</g>
</svg>
