<?xml version="1.0" encoding="utf-8"?>
<!-- Generator: Adobe Illustrator 16.0.0, SVG Export Plug-In . SVG Version: 6.00 Build 0)  -->
<!DOCTYPE svg PUBLIC "-//W3C//DTD SVG 1.1//EN" "http://www.w3.org/Graphics/SVG/1.1/DTD/svg11.dtd">
<svg version="1.1" id="Layer_1" xmlns="http://www.w3.org/2000/svg" xmlns:xlink="http://www.w3.org/1999/xlink" x="0px" y="0px"
	 width="44.09px" height="44.091px" viewBox="-9.85 -9.607 44.09 44.091" enable-background="new -9.85 -9.607 44.09 44.091"
	 xml:space="preserve">
<path fill="#E0DFDD" d="M12.196-9.607C0.02-9.607-9.85,0.264-9.85,12.438s9.87,22.046,22.046,22.046
	c12.173,0,22.044-9.871,22.044-22.046S24.369-9.607,12.196-9.607z M16.27,24.594c-0.65,0.127-0.859-0.275-0.859-0.617v-3.529
	c0-1.2-0.42-1.982-0.883-2.383c2.865-0.315,5.875-1.404,5.875-6.344c0-1.406-0.504-2.553-1.324-3.452
	c0.133-0.326,0.574-1.633-0.129-3.404c0,0-1.076-0.345-3.531,1.317c-1.029-0.283-2.129-0.424-3.222-0.43
	c-1.094,0.006-2.193,0.147-3.221,0.432C6.519,4.52,5.439,4.866,5.439,4.866C4.743,6.636,5.18,7.945,5.315,8.268
	C4.492,9.167,3.99,10.314,3.99,11.72c0,4.927,3.001,6.029,5.859,6.355c-0.37,0.321-0.702,0.886-0.818,1.719
	c-0.733,0.331-2.594,0.897-3.74-1.069c0,0-0.68-1.234-1.972-1.326c0,0-1.257-0.016-0.089,0.783c0,0,0.846,0.395,1.427,1.881
	c0,0,0.744,2.297,4.324,1.519v2.394c0,0.339-0.209,0.738-0.849,0.619c-5.111-1.699-8.797-6.521-8.797-12.201
	c0-7.104,5.759-12.86,12.86-12.86c7.101,0,12.859,5.755,12.859,12.86C25.055,18.072,21.375,22.891,16.27,24.594z"/>
</svg>
