<?xml version="1.0" encoding="utf-8"?>
<!-- Generator: Adobe Illustrator 16.0.0, SVG Export Plug-In . SVG Version: 6.00 Build 0)  -->
<!DOCTYPE svg PUBLIC "-//W3C//DTD SVG 1.1//EN" "http://www.w3.org/Graphics/SVG/1.1/DTD/svg11.dtd">
<svg version="1.1" id="Layer_1" xmlns="http://www.w3.org/2000/svg" xmlns:xlink="http://www.w3.org/1999/xlink" x="0px" y="0px"
	 width="1531.001px" height="461.782px" viewBox="37.37 -22.401 1531.001 461.782"
	 enable-background="new 37.37 -22.401 1531.001 461.782" xml:space="preserve">
<g id="orbits" opacity="0.3">
	
		<ellipse transform="matrix(-0.1563 -0.9877 0.9877 -0.1563 757.2903 993.2673)" fill="none" stroke="#0FA697" stroke-miterlimit="10" cx="802.867" cy="173.197" rx="50.172" ry="250.529"/>
	
		<ellipse transform="matrix(-0.1563 -0.9877 0.9877 -0.1563 757.2823 993.2676)" fill="none" stroke="#0FA697" stroke-miterlimit="10" cx="802.866" cy="173.198" rx="93.152" ry="465.149"/>
	<path fill="none" stroke="#0FA697" stroke-miterlimit="10" d="M1567.48,52.284c-13.383-84.567-366.551-98.968-788.832-32.165
		C356.369,86.919,24.885,209.629,38.261,294.197c13.38,84.566,366.55,98.969,788.835,32.166
		C1249.379,259.561,1580.859,136.852,1567.48,52.284z"/>
</g>
<g id="planet">
	<g>
		<radialGradient id="SVGID_1_" cx="295.1392" cy="350.3145" r="85.9399" gradientUnits="userSpaceOnUse">
			<stop  offset="0" style="stop-color:#FF4CFC"/>
			<stop  offset="1" style="stop-color:#030C26"/>
		</radialGradient>
		<circle fill="url(#SVGID_1_)" cx="305.875" cy="368.068" r="70.689"/>
		<radialGradient id="SVGID_2_" cx="295.1392" cy="350.9375" r="85.9394" gradientUnits="userSpaceOnUse">
			<stop  offset="0" style="stop-color:#FF4CFC"/>
			<stop  offset="1" style="stop-color:#030C26"/>
		</radialGradient>
		<circle opacity="0.5" fill="url(#SVGID_2_)" cx="305.875" cy="368.693" r="70.688"/>
	</g>
	<g display="none">
		<path display="inline" opacity="0.2" d="M244.225,403.174c18.103,10.248,39.192,16.125,61.707,16.125
			c22.516,0,43.606-5.877,61.71-16.127c0,0,1.441-2.596,1.889-3.475c0.541-1.064,1.531-3.232,1.998-4.326
			c0.613-1.443,1.6-4.508,2.028-6.012c0.305-1.068,1.24-4.561,1.24-4.561c-19.62,12.984-43.265,20.705-68.865,20.705
			c-25.601,0-49.359-7.6-68.979-20.582c0,0,0.807,3.141,1.122,4.176c0.315,1.037,1.009,3.094,1.399,4.105
			c0.408,1.063,1.265,3.17,1.754,4.199c0.745,1.566,3.221,6.156,3.221,6.156"/>
		<g display="inline">
			<path opacity="0.2" d="M246.121,330.949c17.7,9.639,38.029,15.098,59.812,15.098c21.729,0,42.13-5.473,59.801-15.068
				l-2.038-2.992l-1.458-1.994l-1.819-2.297l-1.419-1.664l-1.015-1.131c-15.777,7.25-33.395,11.352-52.052,11.35
				c-18.688,0-36.394-4.049-52.226-11.285l-1.338,1.506l-1.926,2.324l-1.726,2.27l-1.389,1.973L246.121,330.949z"/>
		</g>
	</g>
</g>
<g id="moon">
	<g>
		<radialGradient id="SVGID_3_" cx="1198.7939" cy="55.4673" r="52.6529" gradientUnits="userSpaceOnUse">
			<stop  offset="0" style="stop-color:#E1E0DE"/>
			<stop  offset="1" style="stop-color:#030C26"/>
		</radialGradient>
		<circle fill="url(#SVGID_3_)" cx="1205.371" cy="66.345" r="43.309"/>
		<radialGradient id="SVGID_4_" cx="1198.7939" cy="55.8486" r="52.6526" gradientUnits="userSpaceOnUse">
			<stop  offset="0" style="stop-color:#E1E0DE"/>
			<stop  offset="1" style="stop-color:#030C26"/>
		</radialGradient>
		<circle opacity="0.5" fill="url(#SVGID_4_)" cx="1205.371" cy="66.727" r="43.309"/>
	</g>
</g>
</svg>
